<svg xmlns="http://www.w3.org/2000/svg" version="1.1" xmlns:xlink="http://www.w3.org/1999/xlink" xmlns:svgjs="http://svgjs.com/svgjs" width="30" height="30"><svg xmlns="http://www.w3.org/2000/svg" viewBox="0 0 30 30"><defs><style>.a{fill:#fff;}.b{fill:#005837;}</style></defs><path class="a" d="M3.33,0H9.5a0,0,0,0,1,0,0V30a0,0,0,0,1,0,0H3.33A3.33,3.33,0,0,1,0,26.67V3.33A3.33,3.33,0,0,1,3.33,0Z"></path><path class="b" d="M9.5,0H26.68A3.32,3.32,0,0,1,30,3.32V26.68A3.32,3.32,0,0,1,26.68,30H9.5a0,0,0,0,1,0,0V0A0,0,0,0,1,9.5,0Z"></path><rect class="b" x="3.5" y="4" width="3.5" height="3.5" rx="0.8"></rect><rect class="b" x="3.48" y="10" width="3.55" height="16" rx="0.8"></rect><path class="a" d="M25.77,8,16.25,22.09a.27.27,0,0,0,.22.41h8.9a.72.72,0,0,1,.72.72v2.06a.72.72,0,0,1-.72.72H12.91a.72.72,0,0,1-.72-.72v-2.2A1.89,1.89,0,0,1,12.51,22L22,7.91a.26.26,0,0,0-.21-.41h-8.9a.72.72,0,0,1-.72-.72V4.72A.72.72,0,0,1,12.91,4H25.37a.72.72,0,0,1,.72.72v2.2A1.89,1.89,0,0,1,25.77,8Z"></path></svg><style>@media (prefers-color-scheme: light) { :root { filter: none; } }
</style></svg>