<svg xmlns="http://www.w3.org/2000/svg" viewBox="0 0 90.47 30"><defs><style>.a{fill:#005837;}.b,.c{fill:#fff;}.c{stroke:#fff;stroke-miterlimit:10;stroke-width:0.2px;}</style></defs><rect class="a" x="1.99" y="1.34" width="86.58" height="27.46" rx="9.49"/><path class="b" d="M79.09,1.84a9,9,0,0,1,9,9v8.48a9,9,0,0,1-9,9H11.48a9,9,0,0,1-9-9V10.83a9,9,0,0,1,9-9H79.09m0-1H11.48a10,10,0,0,0-10,10v8.48a10,10,0,0,0,10,10H79.09a10,10,0,0,0,10-10V10.83a10,10,0,0,0-10-10Z"/><path class="c" d="M39.42,6.74a8.11,8.11,0,0,1,3.31.65,8.28,8.28,0,0,1,2.61,1.76,8,8,0,0,1,1.71,2.63,8.8,8.8,0,0,1,0,6.49,8,8,0,0,1-1.71,2.64,8.39,8.39,0,0,1-11.83,0,8,8,0,0,1-1.72-2.64,8.94,8.94,0,0,1,0-6.49,8,8,0,0,1,1.72-2.63,8.28,8.28,0,0,1,2.61-1.76A8.1,8.1,0,0,1,39.42,6.74Zm0,14.15a5.56,5.56,0,0,0,2.24-.44,5.33,5.33,0,0,0,1.78-1.24,5.91,5.91,0,0,0,1.16-1.86,6.62,6.62,0,0,0,0-4.64,5.91,5.91,0,0,0-1.16-1.86,5.33,5.33,0,0,0-1.78-1.24,5.9,5.9,0,0,0-4.47,0,5.33,5.33,0,0,0-1.78,1.24,5.76,5.76,0,0,0-1.17,1.86,6.62,6.62,0,0,0,0,4.64,5.76,5.76,0,0,0,1.17,1.86,5.33,5.33,0,0,0,1.78,1.24A5.51,5.51,0,0,0,39.42,20.89Z"/><path class="c" d="M58,6.74a8.1,8.1,0,0,1,3.3.65,8.28,8.28,0,0,1,2.61,1.76,8,8,0,0,1,1.72,2.63,8.94,8.94,0,0,1,0,6.49,8,8,0,0,1-1.72,2.64,8.39,8.39,0,0,1-11.83,0,8,8,0,0,1-1.71-2.64,8.8,8.8,0,0,1,0-6.49,8,8,0,0,1,1.71-2.63,8.28,8.28,0,0,1,2.61-1.76A8.15,8.15,0,0,1,58,6.74Zm0,14.15a5.51,5.51,0,0,0,2.23-.44A5.33,5.33,0,0,0,62,19.21a5.76,5.76,0,0,0,1.17-1.86,6.62,6.62,0,0,0,0-4.64A5.76,5.76,0,0,0,62,10.85a5.33,5.33,0,0,0-1.78-1.24,5.9,5.9,0,0,0-4.47,0A5.33,5.33,0,0,0,54,10.85a5.91,5.91,0,0,0-1.16,1.86,6.62,6.62,0,0,0,0,4.64A5.91,5.91,0,0,0,54,19.21a5.33,5.33,0,0,0,1.78,1.24A5.56,5.56,0,0,0,58,20.89Z"/><path class="b" d="M28,9.73,19,20.32c-.11.13,0,.3.21.3h8.48a.63.63,0,0,1,.68.54v1.55a.62.62,0,0,1-.68.54H15.78a.62.62,0,0,1-.68-.54V21.06a1.25,1.25,0,0,1,.3-.8L24.47,9.68c.11-.13,0-.31-.21-.31H15.78a.62.62,0,0,1-.68-.54V7.29a.62.62,0,0,1,.68-.54H27.66a.62.62,0,0,1,.68.54V8.94A1.21,1.21,0,0,1,28,9.73Z"/><rect class="b" x="10.22" y="6.74" width="2.63" height="2.63" rx="0.64"/><rect class="b" x="10.2" y="11.24" width="2.67" height="12.01" rx="0.64"/><path class="b" d="M80.54,11.77a4.6,4.6,0,0,1-1,2.93,5.67,5.67,0,0,1-3,1.79v.05l4.91,6.78H78.62a1.34,1.34,0,0,1-1.11-.58l-3.84-5.46a.83.83,0,0,0-.68-.35H71.71a.36.36,0,0,0-.36.36v5.56a.47.47,0,0,1-.47.47H68.8a.47.47,0,0,1-.47-.47V7.29a.48.48,0,0,1,.47-.48h4.55A16.86,16.86,0,0,1,75.67,7a8.35,8.35,0,0,1,1.84.42A4.73,4.73,0,0,1,79.75,9,4.53,4.53,0,0,1,80.54,11.77Zm-7.7,2.63a14.55,14.55,0,0,0,1.76-.09A5.66,5.66,0,0,0,75.82,14a2.31,2.31,0,0,0,1.26-.94,2.62,2.62,0,0,0,.35-1.38,2.5,2.5,0,0,0-.27-1.18,1.87,1.87,0,0,0-1-.8,3.67,3.67,0,0,0-1.08-.29,10.61,10.61,0,0,0-1.62-.1H71.72a.38.38,0,0,0-.37.37V13.9a.5.5,0,0,0,.5.5Z"/></svg>